:SAMPLES-PER-SECOND 30
:FRAME-RANGE 1-1700
:FULLY-SPECIFIED
:DEGREES
1329
root  10.7766 38.2254 -4.15295 -0.411835 79.515 4.72162
RightUpLeg  -17.1535 22.6739 -1.38784
RightLeg  28.9157 7.86506 4.45323
RightFoot  -15.7215 0.342338 11.7129
RightToes  6.35937e-011 1.2921e-014 -6.02303e-014
Spine  23.4267 2.94769 1.62538
Spine1  -2.54456 2.04129 2.7875
HEad  -1.85783 36.2831 -16.9965
LeftShoulder1  2.03192 -9.69132 -8.39278
LeftArm  29.0899 -43.0849 -98.1472
LeftForeArm  74.8422 5.01888 -14.654
LeftHand  -0.280505 14.7937 -2.36143
RightShoulder  4.19407 10.9449 23.3692
RightArm  -13.2468 36.9577 68.5799
RightForeArm  89.9653 -4.53941 4.04643
RightHand  0.384898 -8.0148 -17.729
LeftUpLeg  -95.2292 7.48617 -40.5724
LeftLeg  103.911 -3.1077 9.80424
LeftFoot  -30.769 -0.337594 -3.05473
LeftToes  -1.9349e-011 5.45182e-011 1.33515e-010
1330
root  12.1795 36.351 -3.77862 -3.53308 80.6345 4.7684
RightUpLeg  -19.5135 20.9171 1.10978
RightLeg  47.3931 7.66259 8.52032
RightFoot  -25.216 0.461361 5.1959
RightToes  6.35937e-011 1.2921e-014 -6.02303e-014
Spine  24.9458 3.11275 0.573783
Spine1  -1.75142 2.10315 2.67768
HEad  -2.77875 34.7033 -17.4954
LeftShoulder1  2.02341 -9.21315 -8.98608
LeftArm  26.0476 -43.4889 -99.6206
LeftForeArm  82.2923 5.38759 -13.8595
LeftHand  -0.345926 14.8655 -3.10811
RightShoulder  4.12189 10.5899 23.6155
RightArm  -11.2225 36.7924 67.0997
RightForeArm  87.255 -5.00468 6.13144
RightHand  0.323549 -7.54055 -18.2508
LeftUpLeg  -93.4991 7.69631 -41.4687
LeftLeg  105.311 -3.78341 11.071
LeftFoot  -30.2655 -0.228808 -2.46656
LeftToes  -1.9349e-011 5.45182e-011 1.33515e-010
1331
root  13.721 35.3852 -3.6191 2.70319 82.9931 12.7927
RightUpLeg  -18.5683 17.9329 1.69175
RightLeg  55.2277 4.53764 6.59353
RightFoot  -28.7282 0.0219701 1.41965
RightToes  6.35937e-011 1.2921e-014 -6.02303e-014
Spine  23.8372 2.42723 -0.746022
Spine1  0.680254 1.17635 2.4421
HEad  -4.37174 32.0875 -16.4988
LeftShoulder1  2.08294 -10.1367 -8.23653
LeftArm  36.4797 -43.7313 -100.338
LeftForeArm  76.0778 3.68822 -15.4721
LeftHand  -0.3162 14.774 -2.79153
RightShoulder  4.02685 10.3645 23.3972
RightArm  -12.9843 36.1067 67.0688
RightForeArm  85.8474 -4.87836 4.97137
RightHand  0.350155 -7.6078 -19.0193
LeftUpLeg  -89.8573 6.866 -43.4031
LeftLeg  104.228 -3.48119 10.8433
LeftFoot  -30.5364 -0.266451 -2.66347
LeftToes  -1.9349e-011 5.45182e-011 1.33515e-010
1332
root  15.3399 34.7097 -3.4573 14.0585 85.7618 24.5586
RightUpLeg  -16.7389 14.9837 1.89117
RightLeg  59.8753 3.92557 6.81001
RightFoot  -33.8281 -0.236825 -0.0316895
RightToes  6.35937e-011 1.2921e-014 -6.02303e-014
Spine  23.1089 2.20294 -2.06867
Spine1  -0.636863 0.360912 3.47845
HEad  -4.71298 29.9856 -16.992
LeftShoulder1  2.26533 -9.9971 -9.95079
LeftArm  32.9074 -42.7631 -100.463
LeftForeArm  81.4078 4.08181 -15.0369
LeftHand  -0.360997 15.04 -3.21468
RightShoulder  3.93046 9.62469 24.3893
RightArm  -13.2705 35.5077 65.8822
RightForeArm  87.6826 -4.82226 5.13278
RightHand  0.313128 -7.40401 -18.8226
LeftUpLeg  -88.877 4.15369 -44.3639
LeftLeg  105.128 -3.03147 8.82917
LeftFoot  -30.1297 -0.421907 -3.64609
LeftToes  -1.9349e-011 5.45182e-011 1.33515e-010
1333
root  16.9285 34.8812 -3.44726 27.2665 86.2072 38.0587
RightUpLeg  -12.5917 13.3391 1.55264
RightLeg  58.9136 4.33247 7.2639
RightFoot  -36.0997 -0.476905 -1.04973
RightToes  6.35937e-011 1.2921e-014 -6.02303e-014
Spine  22.3975 2.48221 -1.70206
Spine1  -1.47249 0.793815 2.58563
HEad  -6.27666 27.1597 -17.8134
LeftShoulder1  2.36509 -10.0275 -10.7406
LeftArm  36.5487 -42.203 -100.614
LeftForeArm  79.5562 3.29753 -15.5444
LeftHand  -0.392405 15.1173 -3.54382
RightShoulder  3.85549 9.4074 24.3148
RightArm  -12.4729 33.5198 65.059
RightForeArm  84.7441 -5.17411 6.48193
RightHand  0.26527 -7.10883 -18.8092
LeftUpLeg  -89.4146 3.57545 -44.3796
LeftLeg  106.036 -3.10701 8.58508
LeftFoot  -30.1799 -0.396892 -3.48738
LeftToes  -1.9349e-011 5.45182e-011 1.33515e-010
1334
root  18.5712 35.6948 -3.49202 38.3335 85.6129 48.43
RightUpLeg  -8.58528 11.5479 0.0262699
RightLeg  55.097 5.86973 8.57688
RightFoot  -34.8127 -0.614104 -1.81312
RightToes  6.35937e-011 1.2921e-014 -6.02303e-014
Spine  20.2846 2.70424 -1.89478
Spine1  -2.12974 1.02075 2.00871
HEad  -6.47686 25.8972 -18.6753
LeftShoulder1  2.363 -9.54886 -11.4577
LeftArm  37.0674 -41.4074 -99.0256
LeftForeArm  78.7926 2.94654 -15.7311
LeftHand  -0.416794 15.0098 -3.87271
RightShoulder  3.8812 9.20943 25.0354
RightArm  -14.2535 31.756 65.9065
RightForeArm  85.137 -4.97303 5.35504
RightHand  0.310937 -7.33719 -19.2867
LeftUpLeg  -91.5376 3.94306 -44.7704
LeftLeg  107.284 -3.83732 10.0255
LeftFoot  -30.376 -0.314896 -2.96926
LeftToes  -1.9349e-011 5.45182e-011 1.33515e-010
1335
root  20.3067 36.9289 -3.58628 50.9786 85.2529 60.5013
RightUpLeg  -4.95943 9.65803 -1.83021
RightLeg  51.5866 8.07882 10.4313
RightFoot  -29.2272 -0.275015 -0.486407
RightToes  6.35937e-011 1.2921e-014 -6.02303e-014
Spine  18.3388 2.46026 -2.05946
Spine1  -3.61786 0.737328 1.61501
HEad  -4.20392 25.5587 -17.9045
LeftShoulder1  2.28987 -8.94878 -11.7958
LeftArm  36.0933 -40.6341 -96.7025
LeftForeArm  77.1925 2.8551 -15.8215
LeftHand  -0.448468 14.6144 -4.44735
RightShoulder  3.89233 8.87388 26.0253
RightArm  -16.3496 29.8634 67.6029
RightForeArm  86.6808 -4.65451 3.84183
RightHand  0.357924 -7.574 -19.6618
LeftUpLeg  -93.7465 4.46571 -45.208
LeftLeg  109.942 -4.18897 9.56216
LeftFoot  -30.5823 -0.309036 -2.90977
LeftToes  -1.9349e-011 5.45182e-011 1.33515e-010
1336
root  22.0408 38.3561 -3.64451 53.5587 84.6588 63.3091
RightUpLeg  -2.15294 11.133 -2.34578
RightLeg  49.5825 9.36636 11.2637
RightFoot  -19.6586 0.0438351 2.43371
RightToes  6.35937e-011 1.2921e-014 -6.02303e-014
Spine  17.3448 2.11983 -2.39091
Spine1  -5.31462 0.367824 1.29234
HEad  -0.747174 25.4873 -15.7532
LeftShoulder1  2.22354 -8.28983 -12.3397
LeftArm  33.6459 -39.8924 -92.8082
LeftForeArm  75.2383 3.05497 -15.8024
LeftHand  -0.498444 14.4254 -5.16857
RightShoulder  3.93685 8.57356 27.2558
RightArm  -16.8143 27.7928 69.5773
RightForeArm  87.0354 -4.60785 3.65691
RightHand  0.428163 -8.01038 -19.5169
LeftUpLeg  -96.0171 6.48942 -45.2562
LeftLeg  113.493 -4.00526 7.69964
LeftFoot  -31.2235 -0.286462 -2.70795
LeftToes  -1.9349e-011 5.45182e-011 1.33515e-010
1337
root  23.7466 39.6413 -3.73797 59.2781 84.1367 69.1057
RightUpLeg  -1.67376 13.9175 -2.64724
RightLeg  49.9519 9.70091 11.8139
RightFoot  -8.46594 -0.249674 7.64031
RightToes  6.35937e-011 1.2921e-014 -6.02303e-014
Spine  15.2369 1.63138 -3.0199
Spine1  -5.14564 -0.147562 1.33512
HEad  2.94384 25.0274 -14.4563
LeftShoulder1  2.14784 -8.01597 -12.1134
LeftArm  30.1342 -39.7132 -89.704
LeftForeArm  73.5681 3.57215 -15.626
LeftHand  -0.518551 13.9454 -5.75332
RightShoulder  3.96215 8.38176 28.0423
RightArm  -17.9526 26.6287 71.6694
RightForeArm  88.5526 -4.37725 2.68563
RightHand  0.509253 -8.5488 -19.1994
LeftUpLeg  -97.5597 8.09588 -45.9037
LeftLeg  116.269 -3.77978 6.40415
LeftFoot  -31.9485 -0.273501 -2.56409
LeftToes  -1.9349e-011 5.45182e-011 1.33515e-010
1338
root  25.2671 40.4991 -3.8271 73.3569 84.4293 83.7439
RightUpLeg  -2.56273 16.7848 -1.58155
RightLeg  52.7549 8.69168 11.7028
RightFoot  -1.74892 -0.75587 8.84888
RightToes  6.35937e-011 1.2921e-014 -6.02303e-014
Spine  14.3953 1.33039 -3.73497
Spine1  -4.50242 -0.628145 2.33886
HEad  5.22794 23.9883 -14.1517
LeftShoulder1  2.12479 -8.24586 -11.4732
LeftArm  27.5695 -40.139 -88.8368
LeftForeArm  72.0233 4.01957 -15.4552
LeftHand  -0.475053 13.309 -5.65209
RightShoulder  3.98809 8.37666 28.2868
RightArm  -19.2056 26.9992 72.5581
RightForeArm  90.5593 -4.0656 1.37734
RightHand  0.541425 -8.81872 -18.8097
LeftUpLeg  -97.3402 8.77005 -46.0493
LeftLeg  117.371 -3.3948 5.43698
LeftFoot  -32.1028 -0.276731 -2.56746
LeftToes  -1.9349e-011 5.45182e-011 1.33515e-010
1339
root  26.5156 40.9191 -3.99284 96.0591 84.1854 106.572
RightUpLeg  -3.37029 16.6805 -1.94631
RightLeg  51.5745 7.96596 10.277
RightFoot  -6.07029 -0.496002 9.85224
RightToes  6.35937e-011 1.2921e-014 -6.02303e-014
Spine  14.9802 1.35605 -4.07754
Spine1  -3.77006 -0.763771 3.03808
HEad  4.51646 22.5392 -14.9992
LeftShoulder1  2.18867 -8.59738 -11.4654
LeftArm  27.6021 -40.5216 -90.0483
LeftForeArm  72.8788 4.04961 -15.403
LeftHand  -0.409972 13.1013 -4.88176
RightShoulder  4.00985 8.46265 28.2206
RightArm  -19.6738 27.9399 71.5175
RightForeArm  90.2875 -4.00452 0.943048
RightHand  0.566845 -8.94688 -18.9514
LeftUpLeg  -95.9668 8.03715 -46.3384
LeftLeg  115.577 -3.37197 5.82594
LeftFoot  -31.5303 -0.317049 -2.84833
LeftToes  -1.9349e-011 5.45182e-011 1.33515e-010
1340
root  27.5648 41.0933 -4.2334 110.11 83.9668 119.763
RightUpLeg  -5.21369 14.2838 -3.0613
RightLeg  43.8914 6.30994 6.16736
RightFoot  -10.2232 -0.155203 8.75718
RightToes  6.35937e-011 1.2921e-014 -6.02303e-014
Spine  16.7775 1.9304 -2.68634
Spine1  -3.78065 0.037766 2.83821
HEad  1.39555 21.1964 -16.2929
LeftShoulder1  2.33756 -9.21997 -11.7687
LeftArm  30.8724 -40.4042 -92.0185
LeftForeArm  73.4994 3.56212 -15.6335
LeftHand  -0.34237 13.6685 -3.59811
RightShoulder  4.11348 8.97555 27.6236
RightArm  -19.9398 29.7778 69.4772
RightForeArm  90.0162 -3.96379 0.629994
RightHand  0.525656 -8.68929 -18.9779
LeftUpLeg  -94.9712 7.18207 -45.9118
LeftLeg  111.999 -3.02827 6.09103
LeftFoot  -31.2958 -0.376499 -3.212
LeftToes  -1.9349e-011 5.45182e-011 1.33515e-010
1341
root  28.4704 40.8633 -4.45401 109.996 84.3614 118.202
RightUpLeg  -8.02175 14.0377 -3.88585
RightLeg  34.0887 4.82577 3.25775
RightFoot  -16.0601 0.239963 8.4585
RightToes  6.35937e-011 1.2921e-014 -6.02303e-014
Spine  18.966 2.58959 -0.518734
Spine1  -3.73715 1.35608 1.29371
HEad  -2.9427 20.572 -17.3013
LeftShoulder1  2.40094 -9.36387 -12.0877
LeftArm  32.3717 -41.1375 -93.5483
LeftForeArm  73.7088 3.58199 -15.6158
LeftHand  -0.281838 14.5818 -2.44632
RightShoulder  4.22096 9.91622 25.9922
RightArm  -19.1754 32.5065 68.9733
RightForeArm  89.9377 -3.95981 0.585497
RightHand  0.464293 -8.36008 -18.7028
LeftUpLeg  -95.6343 7.18509 -45.1445
LeftLeg  108.073 -2.41752 5.78775
LeftFoot  -31.0763 -0.417011 -3.4734
LeftToes  -1.9349e-011 5.45182e-011 1.33515e-010
1342
root  29.3892 40.1215 -4.60732 109.845 84.4649 116.752
RightUpLeg  -11.3471 15.0476 -4.82549
RightLeg  26.3204 4.16788 2.01745
RightFoot  -19.4347 0.620559 10.6128
RightToes  6.35937e-011 1.2921e-014 -6.02303e-014
Spine  20.7307 2.76696 0.339067
Spine1  -3.45743 2.07918 0.31202
HEad  -5.67533 21.3097 -18.0228
LeftShoulder1  2.30612 -9.31329 -11.3389
LeftArm  29.9556 -42.4785 -94.8683
LeftForeArm  74.2953 4.37496 -15.1475
LeftHand  -0.204195 15.1269 -1.3857
RightShoulder  4.26823 10.6724 24.5356
RightArm  -17.6727 35.1991 69.5086
RightForeArm  90.3833 -3.98689 0.864987
RightHand  0.463966 -8.38413 -18.5528
LeftUpLeg  -96.5611 7.2342 -44.9156
LeftLeg  104.334 -2.13426 6.27654
LeftFoot  -30.9542 -0.438333 -3.61435
LeftToes  -1.9349e-011 5.45182e-011 1.33515e-010
1343
root  30.5287 38.9393 -4.68999 117.876 83.9465 124.393
RightUpLeg  -13.445 15.5032 -5.58358
RightLeg  22.5957 5.59153 2.33772
RightFoot  -19.5428 0.767332 12.5138
RightToes  6.35937e-011 1.2921e-014 -6.02303e-014
Spine  21.5608 2.77478 -0.177178
Spine1  -2.80487 2.06656 0.990848
HEad  -5.69317 23.2768 -18.752
LeftShoulder1  2.21434 -9.21784 -10.6795
LeftArm  29.1389 -43.3829 -95.442
LeftForeArm  73.401 4.76617 -14.9221
LeftHand  -0.159788 14.9521 -0.904669
RightShoulder  4.20902 10.9057 23.5667
RightArm  -16.5331 37.2892 70.2242
RightForeArm  90.9921 -3.96842 0.92068
RightHand  0.458238 -8.32336 -18.6971
LeftUpLeg  -96.6058 7.17757 -45.1799
LeftLeg  101.844 -2.09532 7.31367
LeftFoot  -30.954 -0.446373 -3.66086
LeftToes  -1.9349e-011 5.45182e-011 1.33515e-010
